# xmcd
# 
# Track frame offsets:
#     150
#     14860
#     31627
#     50747
#     63155
#     76994
#     94037
#     107908
#     123924
#     138388
#     160196
#     177491
#     194576
#     210254
#     227869
#     245723
#     259307
#     276365
#     294326
#     312937
# 
# Disc length: 4404
# 
# Revision: 2
# Processed by: cddbd v1.5.2PL0 Copyright (c) Steve Scherf et al.
# Submitted via: fre:ac v1.0.17
# 
DISCID=26113214
DTITLE=Rock Race for Life - Race for Life: Official 2010 Soundtrack [Disc 1 of 2]
DYEAR=2010
DGENRE=Pop
TTITLE0=Race for Life - Girls Just Wanna Have Fun
TTITLE1=Scouting for Girls - She's So Lovely
TTITLE2=Alicia Keys - No One
TTITLE3=Dolly Parton - 9 to 5
TTITLE4=Van Morrison - Brown Eyed Girl
TTITLE5=Kenny Loggins - Footloose
TTITLE6=Bangles - Manic Monday
TTITLE7=Jordin Sparks - S.O.S. (Let the Music Play)
TTITLE8=*NSync - It's Gonna Be Me
TTITLE9=Earth, Wind and Fire with The Emotions - Boogie Wonderland
TTITLE10=Luther Vandross - Never Too Much
TTITLE11=Jamiroquai - Cosmic Girl
TTITLE12=Groove Armada - I See You Baby [Fatboy Slim Radio Edit]
TTITLE13=Heather Small - Proud
TTITLE14=The Pointer Sisters - Jump (For My Love)
TTITLE15=Natalie Imbruglia - Torn
TTITLE16=OutKast - Hey Ya! [Radio Mix/Club Mix]
TTITLE17=Amerie - 1 Thing
TTITLE18=Bill Withers - Lovely Day [7" Sunshine Mix]
TTITLE19=Wham! - Wake Me Up Before You Go Go
EXTD=UPC: 886977396823 - Catalogue number:  - Label:  - ASIN: B003QVVG0I, B003M5XCWI - Release Date: 2010 06 14 - Discogs:  - MUSICBRAINZ_ALBUMID:  -  
EXTT0=
EXTT1=
EXTT2=
EXTT3=
EXTT4=
EXTT5=
EXTT6=
EXTT7=
EXTT8=
EXTT9=
EXTT10=
EXTT11=
EXTT12=
EXTT13=
EXTT14=
EXTT15=
EXTT16=
EXTT17=
EXTT18=
EXTT19=
PLAYORDER=
